# xmcd CD database file
# Copyright (C) 1993-1998 Ti Kan
# 
# Track frame offsets:
#     150
#     29937
#     61000
#     79932
#     105545
#     144055
#     170402
#     207312
# 
# Disc length: 3199 seconds
# 
# Revision: 1
# Processed by: cddbd v1.4b41PL1 Copyright (c) Steve Scherf et al.
# Submitted via: DiscPlay 4.0.4
# 
DISCID=670c7d08
DTITLE=The Revelators - Great To Be Alive
DYEAR=1900
DGENRE=
TTITLE0=I Ain't Drunk
TTITLE1=Webfoot
TTITLE2=New Killing Floor
TTITLE3=Great Big Mama
TTITLE4=Hip Hug Her
TTITLE5=Dust My Broom
TTITLE6=Rockin' and Knockin'
TTITLE7=Run For The Roses (It's The Only Way)
EXTD=
EXTT0=
EXTT1=
EXTT2=
EXTT3=
EXTT4=
EXTT5=
EXTT6=
EXTT7=
PLAYORDER=
